<svg xmlns="http://www.w3.org/2000/svg" xmlns:xlink="http://www.w3.org/1999/xlink" width="1920" zoomAndPan="magnify" viewBox="0 0 1440 809.999993" height="1080" preserveAspectRatio="xMidYMid meet" version="1.0"><defs><g/><clipPath id="0fb9b9dd83"><path d="M 106 261.519531 L 423 261.519531 L 423 548.769531 L 106 548.769531 Z M 106 261.519531 " clip-rule="nonzero"/></clipPath></defs><g clip-path="url(#0fb9b9dd83)"><path fill="#27272d" d="M 370.769531 261.191406 L 159.003906 261.191406 C 157.867188 261.191406 156.730469 261.230469 155.597656 261.304688 C 154.464844 261.378906 153.332031 261.488281 152.207031 261.636719 C 151.078125 261.789062 149.957031 261.972656 148.84375 262.195312 C 147.726562 262.417969 146.621094 262.675781 145.523438 262.96875 C 144.425781 263.261719 143.339844 263.59375 142.261719 263.957031 C 141.1875 264.324219 140.125 264.726562 139.074219 265.160156 C 138.023438 265.59375 136.988281 266.0625 135.96875 266.566406 C 134.949219 267.070312 133.949219 267.605469 132.964844 268.175781 C 131.980469 268.742188 131.015625 269.34375 130.070312 269.972656 C 129.125 270.605469 128.199219 271.269531 127.300781 271.960938 C 126.398438 272.652344 125.519531 273.371094 124.664062 274.121094 C 123.808594 274.871094 122.980469 275.648438 122.175781 276.453125 C 121.375 277.257812 120.597656 278.085938 119.847656 278.941406 C 119.097656 279.796875 118.378906 280.671875 117.6875 281.574219 C 116.992188 282.476562 116.332031 283.402344 115.699219 284.347656 C 115.070312 285.289062 114.46875 286.253906 113.902344 287.242188 C 113.332031 288.226562 112.796875 289.226562 112.292969 290.246094 C 111.792969 291.265625 111.324219 292.300781 110.886719 293.351562 C 110.453125 294.402344 110.054688 295.464844 109.6875 296.539062 C 109.324219 297.617188 108.992188 298.703125 108.699219 299.800781 C 108.40625 300.898438 108.148438 302.007812 107.925781 303.121094 C 107.703125 304.238281 107.519531 305.355469 107.371094 306.484375 C 107.222656 307.609375 107.109375 308.742188 107.035156 309.875 C 106.960938 311.011719 106.925781 312.144531 106.925781 313.28125 C 106.925781 314.417969 106.960938 315.554688 107.035156 316.6875 C 107.109375 317.824219 107.222656 318.953125 107.371094 320.082031 C 107.519531 321.207031 107.703125 322.328125 107.925781 323.445312 C 108.148438 324.558594 108.40625 325.664062 108.699219 326.761719 C 108.992188 327.859375 109.324219 328.949219 109.6875 330.023438 C 110.054688 331.101562 110.453125 332.164062 110.886719 333.214844 C 111.324219 334.265625 111.792969 335.300781 112.296875 336.320312 C 112.796875 337.339844 113.332031 338.339844 113.902344 339.324219 L 219.777344 522.726562 C 220.34375 523.710938 220.945312 524.675781 221.574219 525.617188 C 222.207031 526.5625 222.867188 527.488281 223.5625 528.390625 C 224.253906 529.289062 224.972656 530.167969 225.722656 531.023438 C 226.472656 531.878906 227.25 532.707031 228.054688 533.507812 C 228.855469 534.3125 229.6875 535.089844 230.539062 535.839844 C 231.394531 536.589844 232.273438 537.308594 233.175781 538 C 234.078125 538.691406 235 539.355469 235.945312 539.984375 C 236.890625 540.617188 237.855469 541.214844 238.839844 541.785156 C 239.824219 542.351562 240.824219 542.886719 241.84375 543.390625 C 242.863281 543.894531 243.898438 544.363281 244.949219 544.796875 C 246 545.230469 247.0625 545.632812 248.140625 545.996094 C 249.214844 546.363281 250.300781 546.691406 251.398438 546.984375 C 252.496094 547.28125 253.605469 547.539062 254.71875 547.757812 C 255.832031 547.980469 256.953125 548.167969 258.082031 548.316406 C 259.207031 548.464844 260.339844 548.574219 261.472656 548.648438 C 262.605469 548.722656 263.742188 548.761719 264.878906 548.761719 C 266.015625 548.761719 267.148438 548.722656 268.285156 548.648438 C 269.417969 548.574219 270.550781 548.464844 271.675781 548.316406 C 272.800781 548.167969 273.921875 547.980469 275.039062 547.757812 C 276.152344 547.539062 277.257812 547.28125 278.355469 546.984375 C 279.453125 546.691406 280.542969 546.363281 281.617188 545.996094 C 282.695312 545.632812 283.757812 545.230469 284.808594 544.796875 C 285.855469 544.363281 286.890625 543.894531 287.910156 543.390625 C 288.929688 542.886719 289.933594 542.351562 290.917969 541.785156 C 291.902344 541.214844 292.867188 540.617188 293.8125 539.984375 C 294.757812 539.355469 295.679688 538.691406 296.582031 538 C 297.484375 537.308594 298.359375 536.589844 299.214844 535.839844 C 300.070312 535.089844 300.898438 534.3125 301.703125 533.507812 C 302.507812 532.707031 303.285156 531.878906 304.03125 531.023438 C 304.78125 530.167969 305.503906 529.289062 306.195312 528.390625 C 306.886719 527.488281 307.550781 526.5625 308.179688 525.617188 C 308.8125 524.675781 309.414062 523.710938 309.980469 522.726562 L 415.878906 339.324219 C 416.445312 338.339844 416.980469 337.339844 417.484375 336.320312 C 417.988281 335.300781 418.457031 334.265625 418.890625 333.214844 C 419.324219 332.164062 419.726562 331.101562 420.089844 330.023438 C 420.457031 328.949219 420.785156 327.859375 421.078125 326.761719 C 421.375 325.664062 421.632812 324.558594 421.855469 323.445312 C 422.074219 322.328125 422.261719 321.207031 422.410156 320.082031 C 422.558594 318.953125 422.667969 317.824219 422.742188 316.6875 C 422.816406 315.554688 422.855469 314.417969 422.855469 313.28125 C 422.855469 312.144531 422.816406 311.011719 422.742188 309.875 C 422.667969 308.742188 422.558594 307.609375 422.410156 306.484375 C 422.261719 305.355469 422.074219 304.234375 421.855469 303.121094 C 421.632812 302.007812 421.375 300.898438 421.082031 299.800781 C 420.785156 298.703125 420.457031 297.617188 420.089844 296.539062 C 419.726562 295.464844 419.324219 294.402344 418.890625 293.351562 C 418.457031 292.300781 417.988281 291.265625 417.484375 290.246094 C 416.980469 289.226562 416.445312 288.226562 415.878906 287.242188 C 415.308594 286.253906 414.710938 285.289062 414.078125 284.347656 C 413.445312 283.402344 412.785156 282.476562 412.09375 281.574219 C 411.402344 280.671875 410.679688 279.796875 409.929688 278.941406 C 409.183594 278.085938 408.40625 277.257812 407.601562 276.453125 C 406.796875 275.648438 405.96875 274.871094 405.113281 274.121094 C 404.257812 273.371094 403.382812 272.652344 402.480469 271.960938 C 401.578125 271.269531 400.65625 270.605469 399.710938 269.972656 C 398.765625 269.34375 397.800781 268.742188 396.816406 268.175781 C 395.832031 267.605469 394.828125 267.070312 393.808594 266.566406 C 392.789062 266.0625 391.753906 265.59375 390.707031 265.160156 C 389.65625 264.726562 388.59375 264.324219 387.515625 263.957031 C 386.441406 263.59375 385.351562 263.261719 384.253906 262.96875 C 383.15625 262.675781 382.050781 262.417969 380.9375 262.195312 C 379.820312 261.972656 378.699219 261.789062 377.574219 261.636719 C 376.445312 261.488281 375.316406 261.378906 374.179688 261.304688 C 373.046875 261.230469 371.910156 261.191406 370.773438 261.191406 Z M 396.589844 328.1875 L 290.699219 511.589844 C 290.371094 512.152344 290.03125 512.703125 289.667969 513.246094 C 289.304688 513.785156 288.925781 514.316406 288.53125 514.832031 C 288.136719 515.347656 287.722656 515.851562 287.292969 516.339844 C 286.863281 516.828125 286.421875 517.300781 285.960938 517.761719 C 285.5 518.222656 285.027344 518.667969 284.535156 519.097656 C 284.046875 519.523438 283.542969 519.9375 283.027344 520.332031 C 282.511719 520.730469 281.984375 521.109375 281.441406 521.46875 C 280.902344 521.832031 280.351562 522.175781 279.785156 522.5 C 279.222656 522.824219 278.648438 523.132812 278.066406 523.417969 C 277.480469 523.707031 276.890625 523.976562 276.289062 524.222656 C 275.6875 524.472656 275.078125 524.703125 274.464844 524.910156 C 273.847656 525.121094 273.226562 525.308594 272.597656 525.476562 C 271.96875 525.644531 271.335938 525.792969 270.695312 525.921875 C 270.058594 526.046875 269.417969 526.152344 268.773438 526.238281 C 268.128906 526.324219 267.480469 526.386719 266.832031 526.429688 C 266.179688 526.472656 265.53125 526.492188 264.882812 526.492188 C 264.230469 526.492188 263.582031 526.472656 262.929688 526.429688 C 262.28125 526.386719 261.636719 526.324219 260.988281 526.238281 C 260.34375 526.152344 259.703125 526.046875 259.066406 525.921875 C 258.425781 525.792969 257.792969 525.644531 257.164062 525.476562 C 256.539062 525.308594 255.914062 525.121094 255.300781 524.910156 C 254.683594 524.703125 254.074219 524.472656 253.472656 524.222656 C 252.871094 523.976562 252.28125 523.707031 251.695312 523.417969 C 251.113281 523.132812 250.539062 522.824219 249.976562 522.5 C 249.414062 522.175781 248.859375 521.832031 248.320312 521.46875 C 247.777344 521.109375 247.25 520.730469 246.734375 520.332031 C 246.21875 519.9375 245.714844 519.523438 245.226562 519.097656 C 244.738281 518.667969 244.261719 518.222656 243.800781 517.761719 C 243.339844 517.300781 242.898438 516.828125 242.46875 516.339844 C 242.039062 515.851562 241.625 515.347656 241.230469 514.832031 C 240.835938 514.316406 240.457031 513.785156 240.09375 513.246094 C 239.734375 512.703125 239.390625 512.152344 239.0625 511.589844 L 133.171875 328.1875 C 132.523438 327.058594 131.945312 325.894531 131.449219 324.691406 C 130.949219 323.484375 130.53125 322.253906 130.195312 320.996094 C 129.859375 319.738281 129.605469 318.460938 129.433594 317.171875 C 129.265625 315.878906 129.179688 314.582031 129.179688 313.277344 C 129.179688 311.976562 129.265625 310.679688 129.433594 309.386719 C 129.605469 308.09375 129.859375 306.820312 130.195312 305.5625 C 130.535156 304.300781 130.953125 303.070312 131.453125 301.867188 C 131.949219 300.664062 132.527344 299.496094 133.175781 298.371094 C 133.828125 297.242188 134.550781 296.160156 135.34375 295.125 C 136.136719 294.09375 136.996094 293.117188 137.917969 292.195312 C 138.839844 291.273438 139.816406 290.414062 140.851562 289.621094 C 141.882812 288.828125 142.964844 288.109375 144.09375 287.457031 C 145.222656 286.804688 146.386719 286.230469 147.59375 285.730469 C 148.796875 285.234375 150.027344 284.816406 151.285156 284.480469 C 152.542969 284.140625 153.820312 283.886719 155.113281 283.71875 C 156.402344 283.550781 157.699219 283.464844 159.003906 283.464844 L 370.769531 283.464844 C 371.417969 283.464844 372.070312 283.484375 372.71875 283.527344 C 373.367188 283.570312 374.015625 283.636719 374.660156 283.71875 C 375.304688 283.804688 375.949219 283.910156 376.585938 284.039062 C 377.222656 284.164062 377.855469 284.3125 378.484375 284.480469 C 379.113281 284.648438 379.734375 284.839844 380.351562 285.046875 C 380.96875 285.257812 381.578125 285.488281 382.179688 285.734375 C 382.78125 285.984375 383.371094 286.253906 383.957031 286.539062 C 384.539062 286.828125 385.113281 287.136719 385.675781 287.460938 C 386.238281 287.785156 386.792969 288.128906 387.332031 288.492188 C 387.875 288.851562 388.402344 289.230469 388.917969 289.628906 C 389.433594 290.023438 389.9375 290.4375 390.425781 290.867188 C 390.914062 291.292969 391.390625 291.738281 391.851562 292.199219 C 392.308594 292.660156 392.753906 293.132812 393.183594 293.625 C 393.613281 294.113281 394.023438 294.613281 394.421875 295.132812 C 394.816406 295.648438 395.195312 296.175781 395.558594 296.71875 C 395.917969 297.257812 396.261719 297.8125 396.585938 298.375 C 396.914062 298.9375 397.21875 299.511719 397.507812 300.09375 C 397.796875 300.679688 398.0625 301.269531 398.3125 301.871094 C 398.5625 302.472656 398.789062 303.082031 399 303.699219 C 399.207031 304.3125 399.398438 304.9375 399.566406 305.566406 C 399.734375 306.191406 399.882812 306.828125 400.007812 307.464844 C 400.136719 308.101562 400.242188 308.746094 400.328125 309.390625 C 400.410156 310.035156 400.476562 310.683594 400.519531 311.332031 C 400.5625 311.980469 400.582031 312.628906 400.582031 313.28125 C 400.582031 313.933594 400.5625 314.582031 400.519531 315.230469 C 400.476562 315.878906 400.414062 316.527344 400.328125 317.171875 C 400.242188 317.816406 400.136719 318.460938 400.007812 319.097656 C 399.882812 319.734375 399.734375 320.367188 399.566406 320.996094 C 399.398438 321.625 399.210938 322.25 399 322.863281 C 398.792969 323.480469 398.5625 324.089844 398.3125 324.691406 C 398.066406 325.292969 397.796875 325.882812 397.507812 326.46875 C 397.222656 327.050781 396.914062 327.625 396.589844 328.1875 Z M 396.589844 328.1875 " fill-opacity="1" fill-rule="nonzero"/></g><g fill="#27272d" fill-opacity="1"><g transform="translate(463.620823, 493.124995)"><g><path d="M 17.28125 0 L 17.28125 -168.71875 L 40.3125 -168.71875 L 108.71875 -59.28125 L 95.515625 -59.28125 L 163.6875 -168.71875 L 186.71875 -168.71875 L 186.71875 0 L 154.3125 0 L 154.3125 -112.796875 L 160.5625 -110.875 L 113.046875 -34.5625 L 90.953125 -34.5625 L 43.4375 -110.875 L 49.921875 -112.796875 L 49.921875 0 Z M 17.28125 0 "/></g></g></g><g fill="#27272d" fill-opacity="1"><g transform="translate(656.820453, 493.124995)"><g><path d="M 69.359375 2.40625 C 57.203125 2.40625 46.398438 -0.191406 36.953125 -5.390625 C 27.515625 -10.597656 20.035156 -17.757812 14.515625 -26.875 C 8.992188 -36 6.234375 -46.398438 6.234375 -58.078125 C 6.234375 -69.597656 8.910156 -79.878906 14.265625 -88.921875 C 19.628906 -97.960938 26.953125 -105.160156 36.234375 -110.515625 C 45.515625 -115.878906 55.835938 -118.5625 67.203125 -118.5625 C 78.398438 -118.5625 88.28125 -116.039062 96.84375 -111 C 105.40625 -105.957031 112.125 -99.078125 117 -90.359375 C 121.875 -81.640625 124.3125 -71.757812 124.3125 -60.71875 C 124.3125 -58.632812 124.191406 -56.515625 123.953125 -54.359375 C 123.710938 -52.203125 123.273438 -49.765625 122.640625 -47.046875 L 25.203125 -46.796875 L 25.203125 -70.3125 L 108 -70.5625 L 95.28125 -60.71875 C 94.957031 -67.601562 93.710938 -73.363281 91.546875 -78 C 89.390625 -82.632812 86.269531 -86.191406 82.1875 -88.671875 C 78.113281 -91.160156 73.117188 -92.40625 67.203125 -92.40625 C 60.960938 -92.40625 55.519531 -91.003906 50.875 -88.203125 C 46.238281 -85.398438 42.679688 -81.476562 40.203125 -76.4375 C 37.722656 -71.394531 36.484375 -65.4375 36.484375 -58.5625 C 36.484375 -51.519531 37.800781 -45.398438 40.4375 -40.203125 C 43.082031 -35.003906 46.882812 -31.003906 51.84375 -28.203125 C 56.800781 -25.398438 62.5625 -24 69.125 -24 C 75.039062 -24 80.398438 -25 85.203125 -27 C 90.003906 -29 94.164062 -32 97.6875 -36 L 116.15625 -17.515625 C 110.5625 -10.960938 103.722656 -6.003906 95.640625 -2.640625 C 87.554688 0.722656 78.796875 2.40625 69.359375 2.40625 Z M 69.359375 2.40625 "/></g></g></g><g fill="#27272d" fill-opacity="1"><g transform="translate(775.860265, 493.124995)"><g><path d="M 87.84375 0 L 42.953125 -59.765625 L 87.59375 -115.921875 L 123.84375 -115.921875 L 71.515625 -52.5625 L 72.71875 -67.921875 L 126.234375 0 Z M 13.921875 0 L 13.921875 -173.515625 L 45.359375 -173.515625 L 45.359375 0 Z M 13.921875 0 "/></g></g></g><g fill="#27272d" fill-opacity="1"><g transform="translate(891.780074, 493.124995)"><g><path d="M 68.40625 2.40625 C 56.71875 2.40625 46.191406 -0.273438 36.828125 -5.640625 C 27.472656 -11.003906 20.035156 -18.285156 14.515625 -27.484375 C 8.992188 -36.679688 6.234375 -46.957031 6.234375 -58.3125 C 6.234375 -69.675781 8.953125 -79.878906 14.390625 -88.921875 C 19.835938 -97.960938 27.28125 -105.160156 36.71875 -110.515625 C 46.15625 -115.878906 56.632812 -118.5625 68.15625 -118.5625 C 80 -118.5625 90.597656 -115.878906 99.953125 -110.515625 C 109.316406 -105.160156 116.71875 -97.960938 122.15625 -88.921875 C 127.59375 -79.878906 130.3125 -69.675781 130.3125 -58.3125 C 130.3125 -46.957031 127.59375 -36.679688 122.15625 -27.484375 C 116.71875 -18.285156 109.316406 -11.003906 99.953125 -5.640625 C 90.597656 -0.273438 80.082031 2.40625 68.40625 2.40625 Z M 68.15625 -26.875 C 74.082031 -26.875 79.320312 -28.191406 83.875 -30.828125 C 88.4375 -33.472656 91.957031 -37.15625 94.4375 -41.875 C 96.914062 -46.59375 98.15625 -51.992188 98.15625 -58.078125 C 98.15625 -64.160156 96.875 -69.519531 94.3125 -74.15625 C 91.757812 -78.800781 88.242188 -82.441406 83.765625 -85.078125 C 79.285156 -87.722656 74.082031 -89.046875 68.15625 -89.046875 C 62.394531 -89.046875 57.273438 -87.722656 52.796875 -85.078125 C 48.316406 -82.441406 44.796875 -78.800781 42.234375 -74.15625 C 39.679688 -69.519531 38.40625 -64.160156 38.40625 -58.078125 C 38.40625 -51.992188 39.679688 -46.59375 42.234375 -41.875 C 44.796875 -37.15625 48.316406 -33.472656 52.796875 -30.828125 C 57.273438 -28.191406 62.394531 -26.875 68.15625 -26.875 Z M 68.15625 -26.875 "/></g></g></g><g fill="#27272d" fill-opacity="1"><g transform="translate(1017.539834, 493.124995)"><g><path d="M 13.921875 0 L 13.921875 -115.921875 L 45.359375 -115.921875 L 45.359375 0 Z M 45.359375 -64.078125 L 33.125 -72.234375 C 34.5625 -86.472656 38.71875 -97.710938 45.59375 -105.953125 C 52.476562 -114.191406 62.398438 -118.3125 75.359375 -118.3125 C 80.960938 -118.3125 86.003906 -117.390625 90.484375 -115.546875 C 94.960938 -113.710938 99.039062 -110.71875 102.71875 -106.5625 L 83.046875 -84 C 81.285156 -85.914062 79.160156 -87.351562 76.671875 -88.3125 C 74.191406 -89.28125 71.351562 -89.765625 68.15625 -89.765625 C 61.4375 -89.765625 55.957031 -87.644531 51.71875 -83.40625 C 47.476562 -79.164062 45.359375 -72.722656 45.359375 -64.078125 Z M 45.359375 -64.078125 "/></g></g></g><g fill="#27272d" fill-opacity="1"><g transform="translate(1110.899631, 493.124995)"><g><path d="M 4.796875 0 L 72.71875 -168.71875 L 99.359375 -168.71875 L 167.046875 0 L 132.234375 0 L 79.921875 -138.484375 L 91.921875 -138.484375 L 38.875 0 Z M 40.796875 -31.4375 L 40.796875 -58.796875 L 131.515625 -58.796875 L 131.515625 -31.4375 Z M 40.796875 -31.4375 "/></g></g></g><g fill="#27272d" fill-opacity="1"><g transform="translate(1271.699368, 493.124995)"><g><path d="M 17.28125 0 L 17.28125 -168.71875 L 49.921875 -168.71875 L 49.921875 0 Z M 17.28125 0 "/></g></g></g></svg>