<svg xmlns="http://www.w3.org/2000/svg" xmlns:xlink="http://www.w3.org/1999/xlink" width="2000" zoomAndPan="magnify" viewBox="0 0 1500 1499.999933" height="2000" preserveAspectRatio="xMidYMid meet" version="1.0"><defs><clipPath id="d62249475d"><path d="M 128 199.988281 L 1372 199.988281 L 1372 1330.238281 L 128 1330.238281 Z M 128 199.988281 " clip-rule="nonzero"/></clipPath></defs><g clip-path="url(#d62249475d)"><path fill="#faf9f6" d="M 1166.289062 199.625 L 333.726562 199.625 C 329.257812 199.625 324.792969 199.773438 320.332031 200.066406 C 315.875 200.359375 311.429688 200.796875 307 201.382812 C 302.570312 201.964844 298.160156 202.695312 293.777344 203.566406 C 289.394531 204.4375 285.046875 205.453125 280.730469 206.609375 C 276.414062 207.769531 272.140625 209.066406 267.90625 210.503906 C 263.675781 211.941406 259.496094 213.515625 255.367188 215.226562 C 251.238281 216.9375 247.171875 218.78125 243.164062 220.757812 C 239.15625 222.734375 235.214844 224.839844 231.347656 227.074219 C 227.476562 229.3125 223.683594 231.671875 219.96875 234.152344 C 216.253906 236.636719 212.621094 239.238281 209.078125 241.960938 C 205.53125 244.679688 202.078125 247.515625 198.71875 250.460938 C 195.359375 253.410156 192.101562 256.460938 188.941406 259.621094 C 185.78125 262.78125 182.726562 266.042969 179.78125 269.402344 C 176.835938 272.765625 174.003906 276.21875 171.28125 279.761719 C 168.5625 283.308594 165.960938 286.9375 163.476562 290.65625 C 160.996094 294.371094 158.636719 298.164062 156.402344 302.035156 C 154.167969 305.90625 152.0625 309.84375 150.085938 313.851562 C 148.109375 317.859375 146.269531 321.929688 144.558594 326.058594 C 142.847656 330.1875 141.273438 334.367188 139.839844 338.601562 C 138.402344 342.832031 137.105469 347.105469 135.949219 351.421875 C 134.792969 355.738281 133.777344 360.089844 132.90625 364.472656 C 132.035156 368.855469 131.308594 373.261719 130.722656 377.695312 C 130.140625 382.125 129.703125 386.570312 129.410156 391.027344 C 129.117188 395.488281 128.972656 399.953125 128.972656 404.421875 C 128.972656 408.890625 129.121094 413.355469 129.410156 417.8125 C 129.703125 422.273438 130.140625 426.71875 130.726562 431.148438 C 131.308594 435.578125 132.035156 439.988281 132.90625 444.371094 C 133.777344 448.753906 134.792969 453.101562 135.949219 457.417969 C 137.105469 461.738281 138.402344 466.011719 139.839844 470.242188 C 141.277344 474.472656 142.847656 478.65625 144.558594 482.785156 C 146.269531 486.914062 148.113281 490.980469 150.089844 494.988281 C 152.066406 498.996094 154.171875 502.9375 156.40625 506.808594 L 572.652344 1227.851562 C 574.886719 1231.722656 577.246094 1235.515625 579.730469 1239.230469 C 582.210938 1242.945312 584.8125 1246.574219 587.535156 1250.117188 C 590.253906 1253.664062 593.089844 1257.113281 596.035156 1260.472656 C 598.980469 1263.832031 602.035156 1267.089844 605.195312 1270.25 C 608.355469 1273.410156 611.617188 1276.460938 614.976562 1279.40625 C 618.335938 1282.355469 621.789062 1285.1875 625.332031 1287.90625 C 628.878906 1290.625 632.507812 1293.226562 636.222656 1295.710938 C 639.941406 1298.191406 643.734375 1300.550781 647.601562 1302.785156 C 651.472656 1305.015625 655.410156 1307.121094 659.417969 1309.097656 C 663.425781 1311.074219 667.496094 1312.917969 671.621094 1314.625 C 675.75 1316.335938 679.929688 1317.910156 684.164062 1319.34375 C 688.394531 1320.78125 692.667969 1322.078125 696.984375 1323.234375 C 701.300781 1324.390625 705.648438 1325.402344 710.03125 1326.277344 C 714.414062 1327.148438 718.820312 1327.875 723.25 1328.457031 C 727.679688 1329.039062 732.125 1329.480469 736.582031 1329.769531 C 741.042969 1330.0625 745.507812 1330.210938 749.972656 1330.210938 C 754.441406 1330.210938 758.90625 1330.0625 763.363281 1329.769531 C 767.824219 1329.480469 772.269531 1329.039062 776.699219 1328.457031 C 781.128906 1327.875 785.535156 1327.148438 789.917969 1326.277344 C 794.300781 1325.402344 798.648438 1324.390625 802.964844 1323.234375 C 807.28125 1322.078125 811.554688 1320.78125 815.785156 1319.34375 C 820.019531 1317.910156 824.199219 1316.335938 828.324219 1314.625 C 832.453125 1312.917969 836.523438 1311.074219 840.53125 1309.097656 C 844.539062 1307.121094 848.476562 1305.015625 852.347656 1302.785156 C 856.214844 1300.550781 860.007812 1298.191406 863.722656 1295.710938 C 867.441406 1293.226562 871.070312 1290.625 874.617188 1287.90625 C 878.160156 1285.1875 881.613281 1282.355469 884.972656 1279.40625 C 888.332031 1276.460938 891.59375 1273.410156 894.753906 1270.25 C 897.914062 1267.089844 900.964844 1263.832031 903.914062 1260.472656 C 906.859375 1257.113281 909.695312 1253.664062 912.414062 1250.117188 C 915.132812 1246.574219 917.738281 1242.945312 920.21875 1239.230469 C 922.703125 1235.515625 925.0625 1231.722656 927.296875 1227.851562 L 1343.632812 506.808594 C 1345.867188 502.9375 1347.972656 498.996094 1349.949219 494.988281 C 1351.925781 490.980469 1353.765625 486.914062 1355.476562 482.785156 C 1357.1875 478.65625 1358.761719 474.472656 1360.195312 470.242188 C 1361.632812 466.011719 1362.929688 461.738281 1364.085938 457.417969 C 1365.242188 453.101562 1366.257812 448.753906 1367.128906 444.371094 C 1368 439.988281 1368.726562 435.578125 1369.3125 431.148438 C 1369.894531 426.71875 1370.332031 422.273438 1370.625 417.8125 C 1370.917969 413.355469 1371.0625 408.890625 1371.0625 404.421875 C 1371.0625 399.953125 1370.917969 395.488281 1370.625 391.027344 C 1370.332031 386.570312 1369.894531 382.125 1369.3125 377.691406 C 1368.726562 373.261719 1368 368.855469 1367.128906 364.472656 C 1366.257812 360.089844 1365.242188 355.738281 1364.085938 351.421875 C 1362.929688 347.105469 1361.632812 342.832031 1360.199219 338.601562 C 1358.761719 334.367188 1357.1875 330.1875 1355.476562 326.058594 C 1353.769531 321.929688 1351.925781 317.859375 1349.949219 313.851562 C 1347.972656 309.84375 1345.867188 305.90625 1343.632812 302.035156 C 1341.398438 298.164062 1339.039062 294.371094 1336.558594 290.65625 C 1334.074219 286.9375 1331.472656 283.308594 1328.753906 279.761719 C 1326.035156 276.21875 1323.199219 272.765625 1320.253906 269.402344 C 1317.308594 266.042969 1314.253906 262.78125 1311.09375 259.621094 C 1307.933594 256.460938 1304.675781 253.410156 1301.316406 250.460938 C 1297.957031 247.515625 1294.503906 244.679688 1290.957031 241.960938 C 1287.414062 239.238281 1283.785156 236.636719 1280.066406 234.152344 C 1276.351562 231.671875 1272.558594 229.3125 1268.691406 227.074219 C 1264.820312 224.839844 1260.882812 222.734375 1256.875 220.757812 C 1252.867188 218.78125 1248.796875 216.9375 1244.667969 215.226562 C 1240.539062 213.515625 1236.359375 211.941406 1232.128906 210.503906 C 1227.898438 209.066406 1223.621094 207.769531 1219.304688 206.613281 C 1214.988281 205.453125 1210.640625 204.4375 1206.257812 203.566406 C 1201.875 202.695312 1197.46875 201.964844 1193.035156 201.382812 C 1188.605469 200.796875 1184.160156 200.359375 1179.703125 200.066406 C 1175.242188 199.773438 1170.777344 199.625 1166.308594 199.625 Z M 1267.800781 463.023438 L 851.484375 1184.070312 C 850.207031 1186.285156 848.855469 1188.453125 847.433594 1190.582031 C 846.015625 1192.707031 844.523438 1194.785156 842.96875 1196.816406 C 841.410156 1198.84375 839.789062 1200.820312 838.101562 1202.742188 C 836.414062 1204.667969 834.667969 1206.53125 832.859375 1208.339844 C 831.050781 1210.148438 829.183594 1211.898438 827.261719 1213.582031 C 825.339844 1215.269531 823.363281 1216.890625 821.332031 1218.449219 C 819.304688 1220.003906 817.226562 1221.492188 815.097656 1222.914062 C 812.972656 1224.335938 810.800781 1225.6875 808.585938 1226.964844 C 806.371094 1228.242188 804.117188 1229.449219 801.820312 1230.578125 C 799.527344 1231.710938 797.199219 1232.765625 794.835938 1233.746094 C 792.472656 1234.722656 790.078125 1235.625 787.65625 1236.445312 C 785.234375 1237.269531 782.789062 1238.011719 780.320312 1238.671875 C 777.847656 1239.335938 775.359375 1239.914062 772.851562 1240.414062 C 770.339844 1240.914062 767.820312 1241.328125 765.28125 1241.664062 C 762.746094 1241.996094 760.203125 1242.246094 757.652344 1242.414062 C 755.097656 1242.582031 752.542969 1242.664062 749.984375 1242.664062 C 747.425781 1242.664062 744.871094 1242.582031 742.320312 1242.414062 C 739.769531 1242.246094 737.222656 1241.996094 734.6875 1241.664062 C 732.152344 1241.328125 729.628906 1240.914062 727.121094 1240.414062 C 724.613281 1239.914062 722.121094 1239.335938 719.652344 1238.671875 C 717.179688 1238.011719 714.734375 1237.269531 712.3125 1236.445312 C 709.890625 1235.625 707.496094 1234.722656 705.136719 1233.746094 C 702.773438 1232.765625 700.441406 1231.710938 698.148438 1230.578125 C 695.855469 1229.449219 693.601562 1228.242188 691.386719 1226.964844 C 689.171875 1225.6875 687 1224.335938 684.871094 1222.914062 C 682.746094 1221.492188 680.667969 1220.003906 678.636719 1218.449219 C 676.609375 1216.890625 674.632812 1215.269531 672.710938 1213.582031 C 670.785156 1211.898438 668.921875 1210.148438 667.113281 1208.339844 C 665.304688 1206.53125 663.554688 1204.667969 661.867188 1202.742188 C 660.183594 1200.820312 658.558594 1198.84375 657.003906 1196.816406 C 655.445312 1194.785156 653.957031 1192.707031 652.535156 1190.582031 C 651.113281 1188.453125 649.765625 1186.285156 648.484375 1184.070312 L 232.171875 463.023438 C 230.890625 460.808594 229.6875 458.550781 228.554688 456.257812 C 227.425781 453.960938 226.367188 451.632812 225.390625 449.269531 C 224.410156 446.90625 223.511719 444.511719 222.6875 442.089844 C 221.867188 439.667969 221.125 437.21875 220.460938 434.746094 C 219.800781 432.277344 219.21875 429.785156 218.722656 427.277344 C 218.222656 424.765625 217.804688 422.242188 217.472656 419.707031 C 217.140625 417.171875 216.890625 414.625 216.722656 412.070312 C 216.554688 409.519531 216.472656 406.964844 216.472656 404.40625 C 216.472656 401.84375 216.554688 399.289062 216.722656 396.738281 C 216.890625 394.183594 217.140625 391.640625 217.476562 389.101562 C 217.8125 386.566406 218.226562 384.042969 218.726562 381.53125 C 219.226562 379.023438 219.808594 376.535156 220.472656 374.0625 C 221.132812 371.589844 221.875 369.144531 222.699219 366.722656 C 223.519531 364.296875 224.421875 361.90625 225.402344 359.542969 C 226.382812 357.179688 227.4375 354.847656 228.570312 352.554688 C 229.703125 350.257812 230.90625 348.003906 232.1875 345.789062 C 233.46875 343.574219 234.816406 341.402344 236.238281 339.273438 C 237.660156 337.148438 239.152344 335.070312 240.710938 333.039062 C 242.265625 331.011719 243.890625 329.035156 245.578125 327.109375 C 247.265625 325.1875 249.011719 323.320312 250.820312 321.511719 C 252.632812 319.703125 254.5 317.953125 256.421875 316.269531 C 258.347656 314.582031 260.324219 312.960938 262.355469 311.402344 C 264.382812 309.84375 266.460938 308.355469 268.589844 306.933594 C 270.71875 305.515625 272.890625 304.164062 275.105469 302.886719 C 277.320312 301.605469 279.578125 300.402344 281.871094 299.269531 C 284.167969 298.140625 286.496094 297.082031 288.859375 296.105469 C 291.226562 295.125 293.617188 294.226562 296.042969 293.402344 C 298.464844 292.582031 300.910156 291.839844 303.382812 291.179688 C 305.855469 290.515625 308.34375 289.9375 310.855469 289.4375 C 313.363281 288.941406 315.886719 288.523438 318.425781 288.191406 C 320.960938 287.855469 323.503906 287.605469 326.058594 287.441406 C 328.613281 287.273438 331.167969 287.191406 333.726562 287.191406 L 1166.289062 287.191406 C 1168.847656 287.191406 1171.402344 287.273438 1173.953125 287.441406 C 1176.507812 287.609375 1179.050781 287.859375 1181.585938 288.195312 C 1184.125 288.53125 1186.644531 288.945312 1189.15625 289.445312 C 1191.664062 289.945312 1194.152344 290.527344 1196.625 291.1875 C 1199.09375 291.851562 1201.542969 292.59375 1203.964844 293.417969 C 1206.386719 294.238281 1208.78125 295.140625 1211.144531 296.117188 C 1213.507812 297.097656 1215.835938 298.152344 1218.128906 299.285156 C 1220.421875 300.417969 1222.679688 301.621094 1224.894531 302.902344 C 1227.109375 304.179688 1229.28125 305.53125 1231.40625 306.953125 C 1233.535156 308.375 1235.613281 309.863281 1237.640625 311.421875 C 1239.671875 312.976562 1241.648438 314.601562 1243.570312 316.289062 C 1245.492188 317.972656 1247.359375 319.722656 1249.167969 321.53125 C 1250.976562 323.339844 1252.722656 325.207031 1254.410156 327.128906 C 1256.097656 329.054688 1257.71875 331.03125 1259.277344 333.058594 C 1260.832031 335.089844 1262.324219 337.167969 1263.742188 339.292969 C 1265.164062 341.421875 1266.515625 343.59375 1267.792969 345.808594 C 1269.074219 348.023438 1270.277344 350.277344 1271.410156 352.574219 C 1272.542969 354.867188 1273.597656 357.195312 1274.574219 359.558594 C 1275.554688 361.921875 1276.453125 364.316406 1277.277344 366.738281 C 1278.097656 369.160156 1278.839844 371.605469 1279.503906 374.078125 C 1280.167969 376.550781 1280.746094 379.039062 1281.246094 381.546875 C 1281.746094 384.058594 1282.160156 386.578125 1282.496094 389.117188 C 1282.828125 391.652344 1283.078125 394.195312 1283.246094 396.75 C 1283.414062 399.300781 1283.5 401.855469 1283.5 404.414062 C 1283.5 406.972656 1283.414062 409.527344 1283.246094 412.082031 C 1283.082031 414.632812 1282.832031 417.179688 1282.496094 419.714844 C 1282.164062 422.25 1281.746094 424.773438 1281.246094 427.28125 C 1280.75 429.792969 1280.167969 432.28125 1279.507812 434.753906 C 1278.84375 437.222656 1278.101562 439.671875 1277.28125 442.09375 C 1276.457031 444.515625 1275.558594 446.910156 1274.578125 449.273438 C 1273.601562 451.636719 1272.546875 453.964844 1271.414062 456.257812 C 1270.28125 458.554688 1269.078125 460.808594 1267.800781 463.023438 Z M 1267.800781 463.023438 " fill-opacity="1" fill-rule="nonzero"/></g></svg>